# xmcd
# 
# Track frame offsets:
#     150
#     19507
#     35315
#     51080
#     71050
#     89062
#     111867
#     130155
#     146480
#     163277
#     180577
# 
# Disc length: 2642
# 
# Revision: 2
# Processed by: cddbd v1.5.2PL0 Copyright (c) Steve Scherf et al.
# Submitted via: fre:ac v1.0.17
# 
DISCID=980a500b
DTITLE=矢沢永吉 - 永吉
DYEAR=1990
DGENRE=Other
TTITLE0="カサノバ"と囁いて　 
TTITLE1=悪戯な眼　
TTITLE2=ゆきずり
TTITLE3=DIAMOND MOON　 
TTITLE4=PURE GOLD　 
TTITLE5=CITY LIGHTS
TTITLE6=DANCING ON THE BEACH　 
TTITLE7=奴に…
TTITLE8=し・ん・く
TTITLE9=GET UP　 
TTITLE10=I AM 
EXTD=
EXTT0=
EXTT1=
EXTT2=
EXTT3=
EXTT4=
EXTT5=
EXTT6=
EXTT7=
EXTT8=
EXTT9=
EXTT10=
PLAYORDER=
